<?xml version="1.0" encoding="UTF-8"?>
<svg version="1.1" viewBox="600 400 240 600" width="1280" height="1280" xmlns="http://www.w3.org/2000/svg">
<path transform="translate(0)" d="m0 0h1440v1440h-1440z" fill="#fff"/>
<path transform="translate(708,466)" d="m0 0h24l21 2 23 4 24 7 21 8 12 6 1 1 1 29-3 5-59 59-1 2 4 2 15 10 17 12 18 13 14 10-1 4-13 19-11 16-9 13 3 9 11 22 11 23 19 39 18 37 11 23 4 8-1-15-21-218-6-64 4 1 27 15 17 10 25 14 15 9 4 5 7 15 8 22 6 23 3 16 2 17 1 23-2 28-4 24-6 23-7 19-8 18-9 16-7 11-12 16-11 13-12 13-10 9-14 11-16 11-17 10-21 10-22 8-23 6-30 5-24 1-20-1-22-3-23-5-27-9-20-9-15-8-16-10-13-10-13-11-14-13-7-8-11-13-12-17-12-21-8-17-9-25-6-24-4-26-1-13v-20l2-23 4-23 5-19 7-20 9-20 4-5 11-8 17-13 16-12 21-16 16-12 6-4 3 1 13 28 16 32 11 23 21 42 11 23 14 28 11 23 17 34 11 23 20 40 11 23 11 22v2h2v-12l9-164-1-5-46-46-6-5-7-8-2-4 10-8 28-24 13-11 5-5-29-16-26-14-23-13-26-14-29-16-16-9-2-2v-11l8-5 26-10 22-6 23-4z" fill="#232022"/>
</svg>
